<?xml version="1.0" encoding="utf-8"?>
<!-- Generator: Adobe Illustrator 21.0.0, SVG Export Plug-In . SVG Version: 6.00 Build 0)  -->
<svg version="1.1" id="Logo" xmlns="http://www.w3.org/2000/svg" xmlns:xlink="http://www.w3.org/1999/xlink" x="0px" y="0px"
	 viewBox="0 0 400 400" style="enable-background:new 0 0 400 400;" xml:space="preserve">
<style type="text/css">
	.st0{fill:#E55F68;}
	.st1{fill:#5CB2A2;}
	.st2{fill:#64BFAE;}
	.st3{fill:#6FC8B8;}
</style>
<defs>
<g id="logo">
	<path class="st0" d="M234.6,107.9c-11.8,3.4-23.3,8.8-34,16.2c-52.7,36.6-65.7,109-29.1,161.7c16.6,23.9,40.6,39.6,66.8,46.3
		c-46.6,13.5-98.5-3.3-127.7-45.3C73.9,234.1,87,161.8,139.6,125.1C168.4,105.1,203.1,99.9,234.6,107.9z"/>
	<path class="st1" d="M286.2,143.3c3.9,11.7,6.1,24.2,6.1,37.2c0,64.2-52,116.2-116.2,116.2c-29.1,0-55.7-10.7-76.1-28.4
		c15.5,45.9,58.9,79,110.1,79c64.2,0,116.2-52,116.2-116.2C326.2,196,310.7,164.6,286.2,143.3z"/>
	<path class="st2" d="M232.2,87.1c7.7,9.6,14,20.6,18.4,32.9c21.9,60.3-9.2,126.9-69.4,148.9c-27.4,10-56,9-81.2-0.7
		c30.3,37.8,82.4,54.1,130.4,36.6c60.3-21.9,91.4-88.6,69.4-148.9C287.9,123,262.6,98.8,232.2,87.1z"/>
	<path class="st3" d="M162.3,52.8c10.5,6.4,20.2,14.6,28.6,24.6c41.2,49.1,34.8,122.4-14.3,163.7c-22.3,18.7-49.6,27.6-76.6,27.2
		c41.4,25.2,95.9,22.6,135.1-10.3c49.1-41.2,55.6-114.5,14.3-163.7C226.9,67.5,194.8,53.4,162.3,52.8z"/>
</g>
</defs>
</svg>
